<?xml version="1.0" standalone="no"?><!DOCTYPE svg PUBLIC "-//W3C//DTD SVG 1.1//EN" "http://www.w3.org/Graphics/SVG/1.1/DTD/svg11.dtd"><svg t="1716368806885" class="icon" viewBox="0 0 1024 1024" version="1.1" xmlns="http://www.w3.org/2000/svg" p-id="5710" xmlns:xlink="http://www.w3.org/1999/xlink" width="32" height="32"><path d="M409.894 960h-2.013c-8.554-0.48-18.619-2.876-29.186-6.71-15.6-5.753-31.703-14.38-47.806-25.885-21.135-15.338-42.27-35.47-62.398-60.396-25.664-31.157-49.819-69.024-72.967-113.123-33.715-65.669-65.92-127.982-95.61-185.982l-0.504-2.876c-7.548-14.859-14.09-27.322-19.122-36.908-3.522-7.19-5.032-10.066-6.039-11.504-22.644-44.1-6.541-100.66 36.232-125.586 14.09-8.149 30.193-12.463 46.296-12.463 8.051 0 16.103 0.959 24.154 2.876 24.154 6.232 44.283 21.57 56.863 42.661l54.85 92.032V203.131c0-50.33 42.774-91.553 95.612-91.553 17.11 0 34.218 4.314 48.812 12.942C451.66 90.008 486.886 67 525.634 67c38.747 0 73.972 23.008 88.565 57.52 14.594-8.628 31.703-12.942 48.812-12.942 52.838 0 95.611 41.223 95.611 91.553v50.81c13.084-6.232 27.677-9.587 41.767-9.587 52.838 0 95.611 41.222 95.611 91.553v201.8c-4.529 113.122-27.174 211.865-65.921 286.162-18.62 35.95-40.76 65.19-65.921 87.239C727.423 943.223 685.153 960 639.36 960H409.894zM157.296 436.696c-5.538 0-10.573 1.44-15.105 4.322-16.615 9.606-23.16 33.62-14.097 50.91l0.503 0.96c0.504 0.96 1.007 2.401 2.014 3.842l0.504 0.48c1.007 1.921 2.517 4.323 3.524 6.724l20.14 39.382c21.65 41.784 54.88 106.62 95.662 185.865 21.146 40.823 43.3 75.403 65.956 103.259 17.119 21.132 34.74 37.941 51.859 50.428 11.077 8.165 22.153 14.408 32.726 18.25 7.05 2.402 10.574 2.882 11.58 2.882h228.583c30.209 0 58.404-11.046 83.578-33.619 19.636-17.29 37.258-41.303 52.866-70.6 36.754-71.56 57.397-171.457 59.411-289.603V337.28c0-19.21-16.112-34.58-35.244-34.58-19.636 0-35.244 15.37-35.244 34.58v199.793c0 17.77-15.104 32.178-33.23 32.178-18.629 0-33.23-14.408-33.23-32.178V203.764c0-19.21-16.111-34.579-35.244-34.579-19.132 0-35.244 15.369-35.244 34.58v288.643c0 17.77-15.104 32.178-33.23 32.178-18.628 0-33.23-14.408-33.23-32.178V159.58c0-19.211-16.111-34.58-35.243-34.58-19.133 0-35.244 15.369-35.244 34.58v333.308c0 17.77-15.105 32.178-33.23 32.178-18.63 0-33.23-14.408-33.23-32.178V203.764c0-19.21-16.112-34.579-35.244-34.579-19.133 0-35.244 15.369-35.244 34.58V551c0 16.329-2.518 29.776-8.056 39.382-6.042 11.526-15.104 18.73-26.685 21.612-3.524 0.96-6.545 1.44-10.07 1.44-8.558 0-16.614-2.4-24.167-7.683-9.566-6.244-18.628-16.81-26.684-31.218L185.49 453.986c-4.531-8.165-11.58-13.448-20.14-15.85-2.517-0.96-5.538-1.44-8.055-1.44z" fill="#fff" p-id="5711"></path></svg>